<?xml version="1.0" standalone="no"?>
<!DOCTYPE svg PUBLIC "-//W3C//DTD SVG 20010904//EN"
 "http://www.w3.org/TR/2001/REC-SVG-20010904/DTD/svg10.dtd">
<svg version="1.0" xmlns="http://www.w3.org/2000/svg"
 width="360.000000pt" height="135.000000pt" viewBox="0 0 360.000000 135.000000"
 preserveAspectRatio="xMidYMid meet">

<g transform="translate(0.000000,135.000000) scale(0.100000,-0.100000)"
fill="#000000" stroke="none">
<path d="M700 1270 c0 -5 -11 -10 -25 -10 -15 0 -28 -7 -32 -17 -4 -10 -11
-21 -17 -25 -6 -4 -12 -65 -14 -145 -3 -76 -8 -140 -12 -143 -5 -3 -11 -143
-16 -312 l-7 -307 24 -25 c17 -19 35 -26 62 -26 20 0 37 -4 37 -9 0 -5 41 -12
92 -16 96 -7 113 -15 124 -59 3 -14 12 -26 20 -26 11 0 14 20 14 90 0 50 4 90
9 90 5 0 12 12 15 26 10 37 88 113 125 120 17 4 31 10 31 15 0 5 27 9 60 9 33
0 60 -4 60 -9 0 -4 15 -11 34 -14 37 -6 100 -62 112 -99 3 -13 11 -26 17 -30
6 -4 13 -36 15 -72 l4 -66 629 0 c552 0 629 -2 629 -15 0 -8 4 -15 9 -15 5 0
11 -9 14 -20 13 -49 25 -12 29 87 2 72 8 108 16 111 7 2 12 9 12 17 0 25 80
96 116 102 19 3 34 10 34 14 0 5 27 9 60 9 33 0 60 -4 60 -9 0 -5 14 -11 31
-15 37 -7 115 -83 125 -120 3 -14 10 -26 15 -26 5 0 9 -27 9 -60 0 -60 0 -60
29 -60 17 0 32 4 36 9 3 5 30 13 60 16 30 4 55 11 55 15 0 4 13 10 30 13 l30
6 0 116 c0 63 -4 115 -9 115 -5 0 -10 26 -13 58 -3 51 -9 64 -40 95 -19 21
-40 37 -47 37 -6 0 -11 4 -11 9 0 5 -13 12 -30 16 -16 4 -30 10 -30 15 0 5
-13 11 -30 15 -16 4 -30 10 -30 15 0 5 -13 11 -30 15 -16 4 -30 10 -30 15 0 5
-13 11 -30 15 -16 4 -30 10 -30 15 0 5 -9 12 -20 15 -11 4 -81 67 -154 141
-74 74 -137 134 -141 134 -4 0 -25 18 -46 40 -21 22 -50 42 -64 46 -14 3 -25
10 -25 15 0 4 -17 11 -37 15 -21 4 -40 11 -43 15 -3 5 -38 11 -78 15 -40 4
-72 11 -72 15 0 5 -387 9 -860 9 -567 0 -860 -3 -860 -10z m1770 -89 c0 -5 23
-11 50 -15 28 -4 50 -10 50 -15 0 -5 18 -11 40 -15 22 -3 40 -11 40 -16 0 -6
5 -10 11 -10 6 0 65 -54 131 -120 65 -66 123 -120 128 -120 6 0 10 -5 10 -11
0 -5 6 -7 13 -3 6 4 9 4 5 -1 -4 -4 -3 -14 4 -22 25 -30 -8 -34 -269 -31 -227
3 -262 5 -276 20 -15 14 -17 41 -17 192 l0 176 40 0 c22 0 40 -4 40 -9z m938
-643 c3 -53 1 -58 -18 -58 -11 0 -20 5 -20 11 0 6 -13 24 -30 41 -16 16 -30
36 -30 43 0 7 -6 16 -12 19 -7 3 14 4 47 3 l60 -2 3 -57z"/>
<path d="M80 1000 c0 -19 7 -20 225 -20 218 0 225 1 225 20 0 19 -7 20 -225
20 -218 0 -225 -1 -225 -20z"/>
<path d="M200 856 c0 -22 24 -26 176 -26 137 0 144 1 144 20 0 19 -7 20 -160
20 -130 0 -160 -3 -160 -14z"/>
<path d="M320 705 c0 -12 18 -15 100 -15 82 0 100 3 100 15 0 12 -18 15 -100
15 -82 0 -100 -3 -100 -15z"/>
<path d="M1112 443 c-12 -2 -20 -9 -17 -14 4 -5 1 -9 -6 -9 -7 0 -28 -17 -48
-37 -36 -37 -36 -37 -36 -128 l0 -90 44 -43 c24 -23 50 -42 57 -42 8 0 14 -4
14 -10 0 -6 32 -10 75 -10 43 0 75 4 75 10 0 6 5 10 11 10 19 0 78 66 85 94 3
14 10 26 15 26 5 0 9 27 9 60 0 33 -4 60 -9 60 -5 0 -12 12 -15 26 -7 28 -51
74 -72 74 -7 0 -14 5 -16 12 -5 13 -122 21 -166 11z m147 -109 c11 -10 21 -29
21 -41 0 -13 5 -23 10 -23 6 0 10 -9 10 -20 0 -11 -4 -20 -9 -20 -5 0 -12 -11
-15 -25 -4 -15 -16 -27 -31 -31 -14 -3 -25 -10 -25 -15 0 -23 -59 -7 -95 25
-35 32 -38 37 -33 79 5 42 27 77 59 90 24 11 85 0 108 -19z"/>
<path d="M2908 444 c-10 -3 -18 -10 -18 -15 0 -5 -6 -9 -14 -9 -20 0 -64 -45
-72 -74 -3 -14 -10 -26 -15 -26 -5 0 -9 -27 -9 -60 0 -33 4 -60 9 -60 5 0 12
-12 15 -26 7 -28 66 -94 85 -94 6 0 11 -4 11 -10 0 -6 32 -10 75 -10 43 0 75
4 75 10 0 6 6 10 14 10 7 0 33 19 57 42 l44 43 0 90 c0 91 0 91 -36 128 -20
20 -41 37 -47 37 -6 0 -12 5 -14 12 -5 13 -127 21 -160 12z m143 -115 c31 -31
33 -103 4 -136 -11 -13 -25 -23 -32 -23 -7 0 -13 -4 -13 -10 0 -5 -13 -10 -30
-10 -16 0 -30 4 -30 9 0 5 -11 12 -25 15 -15 4 -27 16 -31 31 -3 14 -10 25
-15 25 -5 0 -9 14 -9 30 0 17 5 30 10 30 6 0 10 6 10 13 0 13 27 40 51 50 28
12 87 -1 110 -24z"/>
</g>
</svg>
